<svg width="24" height="24" viewBox="0 0 24 24" fill="none" xmlns="http://www.w3.org/2000/svg"><path d="M20.255 4.324h0c.11 1.07.189 3.526-.921 6.024-1.063 2.392-3.247 4.897-7.742 6.255l-3.619-3.62C9.3 8.454 11.802 6.269 14.2 5.213c2.51-1.105 4.986-1.007 6.056-.888z" stroke="#737373" stroke-width="1.5" stroke-linecap="round" stroke-linejoin="round"/><mask id="path-2-inside-1_164_2285" fill="#fff"><path d="m11.011 6.395-4.574.411a.713.713 0 0 0-.557.345l-2.877 4.508a.75.75 0 0 0 .55 1.147l3.58.397"/></mask><path d="M11.146 7.89a1.5 1.5 0 0 0-.269-2.989l.269 2.988zM6.437 6.805l.115 1.496.02-.002-.135-1.494zm-.557.345 1.265.807.023-.037-1.288-.77zm-2.877 4.508-1.264-.807-.003.004 1.267.803zm.55 1.147-.166 1.49h.001l.166-1.49zm3.415 1.888a1.5 1.5 0 0 0 .331-2.982l-.331 2.982zm3.91-9.793-4.575.411.269 2.988 4.574-.41-.269-2.989zm-4.556.41a2.213 2.213 0 0 0-.995.324l1.58 2.551a.788.788 0 0 1-.355.116l-.23-2.991zm-.995.324c-.3.187-.552.442-.734.746l2.575 1.54a.788.788 0 0 1-.262.265l-1.579-2.55zm-.71.709-2.878 4.508 2.529 1.614 2.877-4.508-2.529-1.614zm-2.88 4.512a2.25 2.25 0 0 0-.346 1.072l2.995.176a.75.75 0 0 1-.116.358l-2.534-1.606zm-.346 1.072c-.023.381.052.761.217 1.105l2.705-1.297a.75.75 0 0 1 .073.368l-2.995-.176zm.217 1.105c.165.345.415.641.726.862l1.737-2.446a.75.75 0 0 1 .242.287l-2.705 1.297zm.726.862c.312.22.674.359 1.053.401l.333-2.981c.127.014.247.06.351.134l-1.737 2.446zm1.054.401 3.58.398.331-2.982-3.58-.397-.331 2.981z" fill="#737373" mask="url(#path-2-inside-1_164_2285)"/><mask id="path-4-inside-2_164_2285" fill="#fff"><path d="m18.197 13.475-.424 4.667a.712.712 0 0 1-.345.557l-4.508 2.877a.75.75 0 0 1-1.147-.55l-.398-3.58"/></mask><path d="M19.69 13.61a1.5 1.5 0 1 0-2.987-.27l2.988.27zm-1.918 4.532-1.493-.136-.002.02 1.495.116zm-.344.557-.77-1.288a1.273 1.273 0 0 0-.037.023l.807 1.265zm-4.508 2.877.803 1.267.004-.003-.807-1.264zm-1.147-.55-1.49.165v.001l1.49-.166zm1.093-3.746a1.5 1.5 0 1 0-2.981.332l2.981-.332zm3.837-3.94-.424 4.666 2.987.272.425-4.667-2.988-.272zm-.426 4.687a.788.788 0 0 1 .115-.354l2.551 1.579c.186-.301.298-.642.325-.995l-2.991-.23zm.115-.354a.787.787 0 0 1 .266-.261l1.54 2.574c.303-.181.559-.433.745-.734l-2.55-1.58zm.229-.239-4.508 2.877 1.614 2.53 4.508-2.878-1.614-2.529zm-4.504 2.875a.75.75 0 0 1 .357-.115l.177 2.995a2.25 2.25 0 0 0 1.072-.346l-1.606-2.534zm.357-.115a.749.749 0 0 1 .369.072l-1.298 2.705c.344.165.725.24 1.106.218l-.177-2.995zm.369.072a.75.75 0 0 1 .287.242l-2.446 1.737c.22.311.517.56.861.726l1.298-2.705zm.287.242a.75.75 0 0 1 .134.351l-2.982.333c.043.38.18.742.402 1.053l2.446-1.737zm.134.352-.398-3.58-2.981.332.397 3.58 2.982-.332z" fill="#737373" mask="url(#path-4-inside-2_164_2285)"/><path d="M14.822 9.756a1.125 1.125 0 1 0 1.59-1.591 1.125 1.125 0 0 0-1.59 1.59z" fill="#737373"/><path d="M8.432 18.368 6 16" stroke="#737373" stroke-width="1.5" stroke-linecap="round" stroke-linejoin="round"/></svg>